<?xml version="1.0" encoding="UTF-8"?>
<svg id="Layer_1" xmlns="http://www.w3.org/2000/svg" xmlns:xlink="http://www.w3.org/1999/xlink" version="1.1" viewBox="0 0 31.88 32">
  <!-- Generator: Adobe Illustrator 29.5.0, SVG Export Plug-In . SVG Version: 2.1.0 Build 137)  -->
  <defs>
    <style>
      .st0 {
        fill: url(#linear-gradient);
      }

      .st1 {
        fill: #fff;
      }
    </style>
    <linearGradient id="linear-gradient" x1="15.94" y1="810.32" x2="15.94" y2="841.68" gradientTransform="translate(0 -810)" gradientUnits="userSpaceOnUse">
      <stop offset="0" stop-color="#ffbf00"/>
      <stop offset="1" stop-color="#ffbf00"/>
    </linearGradient>
  </defs>
  <rect class="st0" x=".26" y=".32" width="31.36" height="31.36" rx="15.68" ry="15.68"/>
  <path class="st1" d="M28.21,14.23c-.23-1.55-.75-3.07-1.54-4.44-.97-1.68-2.35-3.13-3.98-4.19-1.27-.83-2.71-1.42-4.19-1.73-1.34-.29-2.73-.33-4.08-.17-1.33.17-2.64.54-3.85,1.13-1.55.75-2.95,1.83-4.07,3.15-1.08,1.28-1.91,2.77-2.4,4.38-.27.87-.43,1.75-.5,2.66-.16,1.93.15,3.9.89,5.69.22.53.48,1.05.77,1.55.47.81,1.04,1.55,1.68,2.23.82.86,1.74,1.6,2.76,2.2.83.48,1.71.88,2.64,1.15.61.19,1.23.32,1.86.41,1.47.21,2.97.16,4.42-.16.78-.17,1.53-.41,2.26-.73,1.68-.73,3.2-1.83,4.41-3.21,1.22-1.39,2.13-3.06,2.63-4.84.46-1.66.57-3.41.33-5.12l-.02.02ZM26.98,16.05c0,.17,0,.32-.02.48-.02.59-.11,1.17-.23,1.74-.46,2.16-1.61,4.17-3.24,5.68-1.36,1.26-3.03,2.18-4.83,2.62-1.36.34-2.77.41-4.16.22h0c-.15,0-.3-.05-.43-.07-.94-.17-1.86-.46-2.73-.87h0c-1.17-.54-2.23-1.31-3.14-2.22-.36-.36-.7-.76-1-1.17-.05-.08-.11-.15-.16-.23h0c-.17-.26-.33-.5-.49-.77-.64-1.09-1.09-2.3-1.32-3.55-.02-.12-.05-.24-.06-.35h0c-.11-.75-.15-1.51-.11-2.26.02-.32.04-.66.11-.97.02-.25.08-.48.13-.73.29-1.33.83-2.61,1.58-3.74,1.47-2.2,3.75-3.86,6.32-4.53,1.31-.35,2.68-.45,4.02-.3h0c1.21.13,2.39.47,3.48.99h0c.95.45,1.83,1.04,2.62,1.74.59.53,1.12,1.11,1.58,1.75.58.8,1.05,1.67,1.39,2.6h0c.47,1.26.7,2.6.68,3.94h0Z"/>
  <path class="st1" d="M8.26,12.92c.77-.18,1.44-.67,1.89-1.31.06-.11.2-.11.3-.15.67-.22,1.35-.42,2.03-.64.09-.03.19-.07.29-.06h5.7c.27,0,.54,0,.82,0,.79.25,1.58.5,2.37.75.05,0,.09.04.11.08.38.55.92.99,1.55,1.22.46.17.97.22,1.47.14.31-.06.63-.15.91-.32-.17-.47-.37-.93-.6-1.39-.19.12-.38.23-.6.26-.29.05-.58-.04-.81-.22-.36-.29-.57-.74-.65-1.19,0-.25,0-.49,0-.74h-1.51v.72c-.76-.24-1.51-.48-2.27-.71v-.66h-1.63v.55h-3.29v-.56h-1.63v.66c-.76.24-1.51.47-2.27.72v-.71h-1.51v.59c0,.18-.05.36-.1.53-.12.34-.32.68-.64.88-.22.14-.47.2-.72.16-.22-.04-.41-.13-.59-.26-.24.45-.43.91-.6,1.4.06.03.12.06.18.09.56.27,1.22.33,1.84.19h-.03Z"/>
  <path class="st1" d="M25.02,13.88c-.49.17-1.03.2-1.54.15-1.29-.33-2.58-.68-3.86-1.02-.11-.03-.22-.02-.33-.02h-6.96c-.27.08-.54.15-.81.22-.98.27-1.98.52-2.96.79-.24.08-.47.05-.72.05-.64-.02-1.31-.2-1.79-.65-.02,0-.03,0-.05-.02-.15.63-.27,1.27-.31,1.92.43.22.88.4,1.35.51.2.04.39.07.59.08v1.79c-.38.1-.77.2-1.15.3v1.68c.38-.11.77-.21,1.15-.31v2.25s.04,0,.05,0c.53.11,1.05.22,1.58.32v-2.54c0-.2.08-.41.26-.53.12-.08.28-.07.39,0,.17.12.24.32.24.52v2.72c.54.11,1.09.22,1.63.33v-3.54c0-.15,0-.3.04-.43.05-.15.15-.28.3-.32.13-.04.26,0,.35.09.14.13.2.31.19.5v3.9h1.64v-4.66h3.29v3.36c0,.42,0,.86,0,1.28,0,0,.02,0,.03,0h1.61v-3.92c0-.2.08-.41.25-.52.12-.08.29-.08.4,0,.17.12.24.33.24.54v3.71c.54-.11,1.09-.22,1.64-.33v-2.72c0-.2.08-.42.26-.53.13-.08.3-.07.41.03.15.12.22.31.22.51v2.53c.54-.11,1.09-.22,1.63-.33v-2.25c.38.11.77.21,1.15.31v-1.68c-.26-.07-.51-.13-.77-.2l-.38-.1v-1.79c.44-.02.87-.14,1.27-.3.23-.09.44-.19.66-.3-.04-.65-.16-1.3-.31-1.93-.27.23-.55.4-.87.51h0ZM12.66,16.32c-1.13.3-2.27.61-3.4.92v-1.63c1.13-.32,2.27-.65,3.4-.96v1.68h0ZM17.58,16.32h-2.37c-.3.02-.61,0-.91,0v-1.68h3.29v1.68h0ZM22.63,17.24c-1.13-.3-2.27-.62-3.4-.92v-1.68c1.13.32,2.27.65,3.4.96v1.63h0Z"/>
</svg>