<?xml version="1.0" encoding="UTF-8"?>
<svg id="Layer_1" xmlns="http://www.w3.org/2000/svg" xmlns:xlink="http://www.w3.org/1999/xlink" version="1.1" viewBox="0 0 31.88 32">
  <!-- Generator: Adobe Illustrator 29.5.0, SVG Export Plug-In . SVG Version: 2.1.0 Build 137)  -->
  <defs>
    <style>
      .st0 {
        fill: url(#linear-gradient);
      }

      .st1 {
        fill: #fff;
      }
    </style>
    <linearGradient id="linear-gradient" x1="15.94" y1="31.83" x2="15.94" y2="-.05" gradientTransform="translate(0 31.89) scale(1 -1)" gradientUnits="userSpaceOnUse">
      <stop offset="0" stop-color="#ffbf00"/>
      <stop offset="1" stop-color="#ffbf00"/>
    </linearGradient>
  </defs>
  <rect class="st0" x="0" y=".06" width="31.88" height="31.88" rx="15.91" ry="15.91"/>
  <path class="st1" d="M28.41,14.2c-.23-1.58-.76-3.12-1.57-4.51-.99-1.71-2.39-3.18-4.05-4.26-1.29-.84-2.75-1.44-4.26-1.76-1.36-.29-2.77-.34-4.15-.17-1.35.17-2.68.55-3.91,1.15-1.58.76-3,1.86-4.14,3.2-1.1,1.3-1.94,2.82-2.44,4.45-.27.88-.44,1.78-.51,2.7-.16,1.96.15,3.96.9,5.78.22.54.49,1.07.78,1.58.48.82,1.06,1.58,1.71,2.27.83.87,1.77,1.63,2.81,2.24.84.49,1.74.89,2.68,1.17.62.19,1.25.33,1.89.42,1.49.21,3.02.16,4.49-.16.79-.17,1.56-.42,2.3-.74,1.71-.74,3.25-1.86,4.48-3.26,1.24-1.41,2.17-3.11,2.67-4.92.47-1.69.58-3.47.34-5.2ZM27.16,16.05c0,.17,0,.33-.02.49-.02.6-.11,1.19-.23,1.77-.47,2.2-1.64,4.24-3.29,5.77-1.38,1.28-3.08,2.22-4.91,2.66-1.38.35-2.82.42-4.23.22h0c-.15,0-.3-.05-.44-.07-.96-.17-1.89-.47-2.77-.88h0c-1.19-.55-2.27-1.33-3.19-2.26-.37-.37-.71-.77-1.02-1.19-.05-.08-.11-.15-.16-.23h-.01c-.17-.26-.34-.51-.5-.78-.65-1.11-1.11-2.34-1.34-3.61-.02-.12-.05-.24-.06-.36h0c-.11-.76-.15-1.53-.11-2.3.02-.33.04-.67.11-.99.02-.25.08-.49.13-.74.29-1.35.84-2.65,1.61-3.8,1.49-2.24,3.81-3.92,6.42-4.6,1.33-.36,2.72-.46,4.09-.31h0c1.23.13,2.43.48,3.54,1.01h0c.97.46,1.86,1.06,2.66,1.77.6.54,1.14,1.13,1.61,1.78.59.81,1.07,1.7,1.41,2.64h0c.48,1.28.71,2.64.69,4Z"/>
  <path class="st1" d="M8.13,12.87c.78-.18,1.46-.68,1.92-1.33.06-.11.2-.11.31-.15.68-.22,1.37-.43,2.06-.65.09-.03.19-.07.29-.06.63,0,1.26,0,1.89,0,1.3,0,2.6,0,3.9,0,.27,0,.55-.01.83,0,.8.25,1.61.51,2.41.76.05.01.09.04.11.08.39.56.94,1.01,1.58,1.24.47.17.99.22,1.49.14.32-.06.64-.15.92-.33-.17-.48-.38-.95-.61-1.41-.19.12-.39.23-.61.26-.29.05-.59-.04-.82-.22-.37-.29-.58-.75-.66-1.21-.01-.25,0-.5,0-.75-.51,0-1.02,0-1.53,0,0,.24,0,.48,0,.73-.77-.24-1.54-.49-2.31-.72,0-.22,0-.45,0-.67-.55,0-1.11,0-1.66,0,0,.19,0,.38,0,.56-1.12,0-2.23,0-3.34,0,0-.19,0-.38,0-.57-.55,0-1.11,0-1.66,0,0,.22,0,.45,0,.67-.77.24-1.54.48-2.31.73,0-.24,0-.47,0-.7,0,0-.01-.02-.01-.02h-1.52c0,.2,0,.4,0,.6,0,.18-.05.37-.1.54-.12.35-.33.69-.65.89-.22.14-.48.2-.73.16-.22-.04-.42-.13-.6-.26-.24.46-.44.93-.61,1.42.06.03.12.06.18.09.57.27,1.24.34,1.87.19Z"/>
  <path class="st1" d="M25.17,13.85c-.5.17-1.05.2-1.57.15-1.31-.34-2.62-.69-3.92-1.04-.11-.03-.22-.02-.34-.02h-4.99c-.69,0-1.39,0-2.08,0-.27.08-.55.15-.82.22-1,.27-2.01.53-3.01.8-.24.08-.48.05-.73.05-.65-.02-1.33-.2-1.82-.66-.02,0-.03-.01-.05-.02-.15.64-.27,1.29-.32,1.95.44.22.89.41,1.37.52.2.04.4.07.6.08v1.82c-.39.1-.78.2-1.17.31v1.71c.39-.11.78-.21,1.17-.32v2.29s.04,0,.05.01c.54.11,1.07.22,1.61.33v-2.58c0-.2.08-.42.26-.54.12-.08.28-.07.4,0,.17.12.24.33.24.53v2.76c.55.11,1.11.22,1.66.34v-3.6c0-.15-.01-.3.04-.44.05-.15.15-.28.31-.33.13-.04.26,0,.36.09.14.13.2.32.19.51,0,1.32,0,2.64,0,3.96.55,0,1.11,0,1.67,0,0-.12,0-.25,0-.37v-4.37c1.12,0,2.23,0,3.34,0,0,.29,0,.57,0,.86,0,.85,0,1.71,0,2.56,0,.43.01.87,0,1.3,0,0,.02,0,.03.01.55,0,1.1,0,1.64,0v-3.98c0-.2.08-.42.25-.53.12-.08.29-.08.41.01.17.12.24.34.24.55v3.77c.55-.11,1.11-.22,1.67-.34,0-.92,0-1.84,0-2.76,0-.2.08-.43.26-.54.13-.08.3-.07.42.03.15.12.22.32.22.52v2.57c.55-.11,1.11-.22,1.66-.34,0-.76,0-1.53,0-2.29.39.11.78.21,1.17.32v-1.71c-.26-.07-.52-.13-.78-.2l-.39-.1v-1.82c.45-.02.88-.14,1.29-.3.23-.09.45-.19.67-.3-.04-.66-.16-1.32-.32-1.96-.27.23-.56.41-.88.52ZM12.61,16.33c-1.15.31-2.31.62-3.46.94,0-.55,0-1.11,0-1.66,1.15-.33,2.31-.66,3.46-.98,0,.57,0,1.14,0,1.71ZM17.61,16.33c-.7,0-1.4,0-2.09,0-.11,0-.22,0-.32,0-.31.02-.62,0-.92,0v-1.71h2.77c.19,0,.38,0,.57,0,0,.57,0,1.14,0,1.71ZM22.74,17.26c-1.15-.31-2.31-.63-3.46-.94,0-.57,0-1.14,0-1.71,1.15.33,2.31.66,3.46.98v1.66Z"/>
</svg>