<svg width="162" height="162" viewBox="0 0 162 162" fill="none" xmlns="http://www.w3.org/2000/svg">
<rect width="161.981" height="161.981" rx="37" fill="url(#paint0_linear_10_3896)"/>
<path d="M144.363 71.8277C143.182 63.785 140.477 55.9558 136.406 48.9238C131.367 40.2405 124.264 32.7672 115.837 27.301C109.26 23.0305 101.887 19.97 94.214 18.3615C87.2958 16.9095 80.1215 16.6248 73.1037 17.4789C66.2282 18.333 59.4809 20.2974 53.2318 23.3295C45.1891 27.1871 37.9862 32.7814 32.2069 39.5857C26.5983 46.1907 22.3421 53.9202 19.8083 62.2049C18.4418 66.6604 17.5734 71.2583 17.2033 75.9131C16.4062 85.8917 17.9578 96.0412 21.7727 105.294C22.8973 108.055 24.2496 110.732 25.73 113.322C28.1926 117.479 31.0966 121.365 34.3991 124.881C38.5983 129.308 43.3955 133.151 48.6624 136.24C52.9471 138.732 57.5165 140.767 62.2567 142.205C65.3884 143.159 68.5912 143.87 71.8368 144.354C79.4097 145.422 87.1677 145.166 94.641 143.557C98.6553 142.675 102.584 141.422 106.342 139.799C115.025 136.055 122.855 130.361 129.089 123.244C135.41 116.07 140.093 107.458 142.655 98.2476C145.061 89.6782 145.588 80.6248 144.363 71.8277ZM138.015 81.2654C137.986 82.1052 138.015 82.9451 137.901 83.7707C137.815 86.8028 137.346 89.8063 136.719 92.7814C134.314 103.97 128.363 114.347 119.979 122.119C112.99 128.639 104.321 133.379 95.0254 135.643C88.0218 137.408 80.6766 137.764 73.5307 136.781L73.5734 136.739C72.819 136.753 72.0645 136.525 71.3243 136.426C66.4702 135.557 61.73 134.048 57.2603 131.942L57.246 131.913C51.2104 129.137 45.7158 125.18 41.0467 120.454C39.182 118.561 37.4596 116.554 35.8795 114.418C35.609 114.034 35.2958 113.678 35.0823 113.251L35.0112 113.265C34.1571 111.942 33.2603 110.646 32.4773 109.28C29.1606 103.628 26.8403 97.3935 25.6588 90.9451C25.5592 90.333 25.4026 89.7209 25.3741 89.1088L25.3457 89.1373C24.762 85.2654 24.5912 81.3223 24.8048 77.4077C24.9186 75.7138 25.0325 74.0198 25.3599 72.3544C25.4596 71.1017 25.7585 69.849 26.0005 68.6106C27.4809 61.7351 30.2852 55.1444 34.1855 49.2939C41.7442 37.8917 53.545 29.3651 66.7976 25.9202C73.5449 24.1124 80.6339 23.5999 87.5805 24.3544L87.6232 24.3828C93.8581 25.0234 99.9649 26.7885 105.63 29.4647V29.4932C110.541 31.785 115.097 34.8597 119.139 38.4754C122.171 41.1942 124.919 44.2405 127.296 47.543C130.271 51.6569 132.719 56.1835 134.456 60.9665H134.484C136.904 67.4576 138.1 74.3615 138.015 81.2654Z" fill="white"/>
<path d="M41.3032 65.0658C45.2604 64.1548 48.7338 61.6209 51.0398 58.3042C51.3387 57.7348 52.0647 57.7206 52.6056 57.5213C56.0789 56.411 59.5807 55.3149 63.054 54.2046C63.5238 54.048 64.0078 53.8629 64.506 53.8772C67.7088 53.8914 70.8974 53.8629 74.1003 53.8914C80.7053 53.8772 87.296 53.8772 93.901 53.8914C95.296 53.9199 96.7053 53.8202 98.1003 53.9341C102.186 55.201 106.257 56.5106 110.342 57.7918C110.584 57.8487 110.798 57.9911 110.926 58.2188C112.89 61.0516 115.68 63.3576 118.94 64.5391C121.346 65.4217 123.994 65.6636 126.527 65.2508C128.15 64.9377 129.787 64.4679 131.196 63.5854C130.314 61.137 129.275 58.7597 128.122 56.4252C127.182 57.0373 126.157 57.5925 125.033 57.7491C123.552 58.0053 122.015 57.5498 120.862 56.6245C118.969 55.1298 117.915 52.7953 117.531 50.4608C117.46 49.1797 117.531 47.8985 117.517 46.6316C114.926 46.6174 112.321 46.6459 109.73 46.6174C109.744 47.8558 109.73 49.08 109.716 50.3185C105.801 49.1085 101.915 47.8274 98.0006 46.6459C97.9579 45.5213 97.9864 44.3825 97.9722 43.258C95.1537 43.258 92.3494 43.2722 89.5309 43.2437C89.5451 44.1975 89.5309 45.1512 89.5309 46.1049C83.8654 46.1192 78.1999 46.1049 72.5487 46.1049C72.5629 45.1512 72.5345 44.1975 72.5772 43.2295C69.7587 43.2722 66.9401 43.2437 64.1216 43.2437C64.1074 44.3683 64.1501 45.5071 64.1074 46.6316C60.1928 47.8274 56.2925 49.0943 52.3779 50.3185C52.3779 49.1227 52.3494 47.9412 52.3779 46.7455C52.3636 46.717 52.3209 46.6601 52.3067 46.6316C49.7302 46.6316 47.1537 46.6316 44.5772 46.6316C44.5914 47.6423 44.5914 48.653 44.6056 49.6637C44.6483 50.6032 44.3636 51.5284 44.079 52.411C43.4526 54.2046 42.385 55.9128 40.7622 56.9519C39.6661 57.6637 38.3138 57.9626 37.0327 57.7491C35.9366 57.564 34.9117 57.0658 34.0007 56.411C32.7907 58.7455 31.7658 61.1512 30.8975 63.6281C31.2106 63.7846 31.5096 63.9412 31.8227 64.0836C34.7266 65.4501 38.143 65.806 41.3032 65.0658Z" fill="white"/>
<path d="M127.865 70.0481C125.303 70.9022 122.541 71.073 119.879 70.8025C113.232 69.0659 106.584 67.3008 99.9363 65.5356C99.3812 65.3933 98.7975 65.4502 98.2281 65.436C89.7869 65.436 81.3313 65.436 72.8901 65.436C69.3598 65.4502 65.8438 65.4075 62.3278 65.4502C60.947 65.8488 59.552 66.1904 58.157 66.5748C53.0609 67.9271 47.9648 69.2652 42.8687 70.6175C41.673 71.0018 40.4061 70.8879 39.1677 70.8879C35.8509 70.8025 32.4061 69.863 29.9292 67.557C29.8438 67.5285 29.7584 67.5 29.673 67.4716C28.8901 70.7314 28.2922 74.0481 28.0645 77.3933C30.2851 78.4894 32.5911 79.4573 35.0111 80.0267C36.0075 80.2403 37.0324 80.3826 38.0573 80.4395C38.0573 83.5285 38.0573 86.6032 38.0573 89.6922C36.0787 90.2047 34.1143 90.7314 32.1356 91.2438C32.1356 94.1477 32.1356 97.0516 32.1356 99.9555C34.1 99.4146 36.0787 98.8879 38.0573 98.347C38.0573 102.233 38.0573 106.119 38.0573 110.005C38.1285 110.02 38.2424 110.048 38.3136 110.062C41.0467 110.617 43.7655 111.173 46.4986 111.728C46.4986 107.358 46.4986 103.002 46.4986 98.6317C46.4986 97.5926 46.8972 96.4822 47.8082 95.8986C48.4061 95.5 49.2459 95.5285 49.8296 95.9413C50.6837 96.5392 51.068 97.621 51.068 98.6317C51.068 101.692 51.068 104.753 51.068 107.813C51.068 109.422 51.068 111.03 51.068 112.639C53.8865 113.208 56.705 113.778 59.5235 114.347C59.5235 108.254 59.5235 102.162 59.5235 96.0694C59.5235 95.3292 59.4666 94.5463 59.737 93.8346C59.9933 93.0943 60.52 92.3968 61.3029 92.1548C61.9434 91.9556 62.641 92.1691 63.1249 92.6104C63.8367 93.2652 64.1214 94.2616 64.1071 95.2011C64.0929 101.891 64.1214 108.596 64.0929 115.301C66.9114 115.258 69.7442 115.272 72.5627 115.301C72.52 114.674 72.5342 114.048 72.5342 113.422C72.5342 106.02 72.5342 98.6317 72.5342 91.2296C78.1997 91.2153 83.8509 91.2296 89.5164 91.2296C89.5164 92.6815 89.5306 94.1335 89.5022 95.5854C89.5449 99.9128 89.5022 104.254 89.5164 108.596C89.4879 110.803 89.5733 113.009 89.4737 115.215C89.5022 115.23 89.5733 115.258 89.6018 115.272C92.3918 115.301 95.1676 115.272 97.9577 115.287C97.9577 108.539 97.9577 101.806 97.9577 95.0587C97.9577 94.0338 98.3562 92.9378 99.2388 92.3684C99.8509 91.9556 100.719 91.984 101.317 92.4395C102.171 93.0659 102.527 94.1762 102.513 95.2153C102.513 101.493 102.513 107.756 102.513 114.034C102.513 114.119 102.513 114.276 102.513 114.361C105.331 113.792 108.164 113.222 110.983 112.639C110.968 107.97 110.983 103.301 110.983 98.6175C110.983 97.5783 111.381 96.4538 112.292 95.8701C112.933 95.4431 113.83 95.5143 114.413 95.9983C115.196 96.6104 115.552 97.6495 115.552 98.6175C115.552 102.973 115.552 107.343 115.552 111.699C118.37 111.13 121.175 110.561 123.993 109.991C123.979 106.105 123.993 102.219 123.993 98.3328C125.958 98.8737 127.936 99.4004 129.915 99.9413C129.915 97.0374 129.915 94.1335 129.915 91.2296C128.591 90.8879 127.282 90.5463 125.972 90.1904C125.317 90.0196 124.662 89.8488 124.007 89.678C124.007 86.589 124.007 83.5143 124.007 80.4253C126.271 80.3257 128.491 79.7136 130.584 78.9022C131.751 78.4609 132.862 77.92 133.986 77.3933C133.758 74.0196 133.189 70.6887 132.349 67.4146C130.997 68.5677 129.516 69.5072 127.865 70.0481ZM64.0644 82.6602C58.1997 84.226 52.3491 85.8203 46.4986 87.4146C46.4844 84.5961 46.4986 81.7919 46.4986 78.9733C52.3634 77.3079 58.2139 75.6424 64.0787 73.9769C64.0644 76.8808 64.1071 79.7705 64.0644 82.6602ZM89.4879 82.6459C85.9434 82.6317 82.399 82.6459 78.8687 82.6459C78.3135 82.6317 77.7584 82.6744 77.2175 82.6032C75.6659 82.7029 74.0858 82.6175 72.52 82.6459C72.52 79.7563 72.52 76.8666 72.52 73.9769C77.2032 73.9769 81.9007 73.9769 86.584 73.9769C87.552 73.9769 88.5199 73.9911 89.4879 73.9627C89.5164 76.8666 89.5022 79.7563 89.4879 82.6459ZM115.524 87.4146C109.673 85.8203 103.808 84.226 97.9577 82.6602C97.9292 79.7705 97.9577 76.8666 97.9434 73.9769C103.808 75.6424 109.659 77.3221 115.524 78.9733C115.524 81.7919 115.524 84.5961 115.524 87.4146Z" fill="white"/>
<defs>
<linearGradient id="paint0_linear_10_3896" x1="80.9906" y1="0" x2="80.9906" y2="161.981" gradientUnits="userSpaceOnUse">
<stop stop-color="#FFBF00"/>
<stop offset="1" stop-color="#FFBF00"/>
</linearGradient>
</defs>
</svg>
